<?xml version="1.0" encoding="UTF-8" standalone="no"?>
<svg
   xmlns:dc="http://purl.org/dc/elements/1.1/"
   xmlns:cc="http://creativecommons.org/ns#"
   xmlns:rdf="http://www.w3.org/1999/02/22-rdf-syntax-ns#"
   xmlns:svg="http://www.w3.org/2000/svg"
   xmlns="http://www.w3.org/2000/svg"
   xmlns:sodipodi="http://sodipodi.sourceforge.net/DTD/sodipodi-0.dtd"
   xmlns:inkscape="http://www.inkscape.org/namespaces/inkscape"
   height="16"
   viewBox="0 0 16 16"
   width="16"
   version="1.1"
   id="svg4530"
   sodipodi:docname="CameraFollower3D.svg"
   inkscape:version="0.92.4 (5da689c313, 2019-01-14)">
  <metadata
     id="metadata4536">
    <rdf:RDF>
      <cc:Work
         rdf:about="">
        <dc:format>image/svg+xml</dc:format>
        <dc:type
           rdf:resource="http://purl.org/dc/dcmitype/StillImage" />
      </cc:Work>
    </rdf:RDF>
  </metadata>
  <defs
     id="defs4534" />
  <sodipodi:namedview
     pagecolor="#ffffff"
     bordercolor="#666666"
     borderopacity="1"
     objecttolerance="10"
     gridtolerance="10"
     guidetolerance="10"
     inkscape:pageopacity="0"
     inkscape:pageshadow="2"
     inkscape:window-width="1920"
     inkscape:window-height="1017"
     id="namedview4532"
     showgrid="false"
     inkscape:zoom="29.5"
     inkscape:cx="7.0466503"
     inkscape:cy="8.4532821"
     inkscape:window-x="4472"
     inkscape:window-y="-8"
     inkscape:window-maximized="1"
     inkscape:current-layer="svg4530">
    <inkscape:grid
       type="xygrid"
       id="grid4567" />
  </sodipodi:namedview>
  <path
     id="path4538"
     d="M 9.0752344,8.5053895 A 1.9464701,1.8536222 0 0 0 7.1287647,10.221225 1.9464701,1.8536222 0 1 0 5.1822946,13.339634 v 1.344495 a 0.64882336,0.61787405 0 0 0 0.6488234,0.617874 h 3.89294 a 0.64882336,0.61787405 0 0 0 0.648823,-0.617874 v -0.617874 l 1.94647,1.235748 v -3.707244 l -1.94647,1.235749 V 11.736871 A 1.9464701,1.8536222 0 0 0 9.0752344,8.5053895 Z"
     inkscape:connector-curvature="0"
     style="fill:#fc7f7f;stroke-width:0.63315964" />
  <path
     style="fill:none;stroke:#fc7f7f;stroke-width:2;stroke-linecap:round;stroke-opacity:1"
     inkscape:connector-curvature="0"
     d="M 4.8719998,7 A 4,4 0 0 1 11,7 M 1.8079998,4.429 a 8,8 0 0 1 12.2560002,0"
     id="path4549" />
</svg>
